<svg width="20" height="20" viewBox="0 0 20 20" fill="none" xmlns="http://www.w3.org/2000/svg">
<path d="M0 8.81641C0 7.59052 0.562138 6.43232 1.52525 5.67387L7.52525 0.948867C8.97702 -0.194406 11.023 -0.194404 12.4748 0.948869L18.4748 5.67387C19.4379 6.43232 20 7.59052 20 8.81641V16C20 18.2091 18.2091 20 16 20H14.1579C13.6056 20 13.1579 19.5523 13.1579 19V15.7C13.1579 14.5954 12.2625 13.7 11.1579 13.7H8.8421C7.73753 13.7 6.84211 14.5954 6.84211 15.7V19C6.84211 19.5523 6.39439 20 5.84211 20H4C1.79086 20 0 18.2091 0 16L0 8.81641Z" fill="#702DFF"/>
</svg>
