<svg width="15" height="15" viewBox="0 0 15 15" fill="none" xmlns="http://www.w3.org/2000/svg">
<path d="M1.90428 7.96781C2.01784 7.83855 2.08047 7.67237 2.08047 7.50031C2.08047 7.32825 2.01784 7.16207 1.90428 7.03281L0.997614 6.01281C0.897706 5.90137 0.835666 5.76114 0.820395 5.61225C0.805124 5.46337 0.837409 5.31347 0.912615 5.18406L2.32928 2.73323C2.40373 2.60397 2.51707 2.50152 2.65317 2.44046C2.78926 2.37941 2.94116 2.36288 3.0872 2.39323L4.41886 2.6624C4.58831 2.69741 4.76471 2.66919 4.91478 2.58306C5.06485 2.49694 5.1782 2.35886 5.23345 2.1949L5.66553 0.898646C5.71305 0.757956 5.80358 0.635758 5.92434 0.549325C6.04509 0.462892 6.18995 0.416596 6.33845 0.416979H9.17178C9.32624 0.408917 9.4791 0.451635 9.60701 0.53861C9.73491 0.625584 9.83083 0.752034 9.88011 0.898646L10.2768 2.1949C10.332 2.35886 10.4454 2.49694 10.5955 2.58306C10.7455 2.66919 10.9219 2.69741 11.0914 2.6624L12.4584 2.39323C12.5969 2.37367 12.738 2.39551 12.8641 2.45602C12.9901 2.51652 13.0955 2.61297 13.1668 2.73323L14.5834 5.18406C14.6605 5.31202 14.6952 5.46108 14.6825 5.60993C14.6698 5.75878 14.6103 5.89979 14.5126 6.01281L13.613 7.03281C13.4995 7.16207 13.4368 7.32825 13.4368 7.50031C13.4368 7.67237 13.4995 7.83855 13.613 7.96781L14.5126 8.98781C14.6103 9.10083 14.6698 9.24185 14.6825 9.3907C14.6952 9.53954 14.6605 9.6886 14.5834 9.81656L13.1668 12.2674C13.0923 12.3967 12.979 12.4991 12.8429 12.5602C12.7068 12.6212 12.5549 12.6377 12.4089 12.6074L11.0772 12.3382C10.9078 12.3032 10.7314 12.3314 10.5813 12.4176C10.4312 12.5037 10.3179 12.6418 10.2626 12.8057L9.83053 14.102C9.78125 14.2486 9.68533 14.375 9.55742 14.462C9.42952 14.549 9.27666 14.5917 9.1222 14.5836H6.28886C6.14037 14.584 5.9955 14.5377 5.87475 14.4513C5.754 14.3649 5.66347 14.2427 5.61595 14.102L5.18386 12.8057C5.12862 12.6418 5.01526 12.5037 4.86519 12.4176C4.71513 12.3314 4.53873 12.3032 4.36928 12.3382L3.03761 12.6074C2.89157 12.6377 2.73968 12.6212 2.60358 12.5602C2.46749 12.4991 2.35414 12.3967 2.2797 12.2674L0.86303 9.81656C0.787824 9.68716 0.755542 9.53726 0.770812 9.38837C0.786083 9.23948 0.848123 9.09926 0.94803 8.98781L1.90428 7.96781ZM2.9597 8.91698L2.39303 9.55448L3.2997 11.127L4.13553 10.957C4.64569 10.8527 5.17638 10.9394 5.62686 11.2005C6.07734 11.4617 6.41626 11.8791 6.57928 12.3736L6.84845 13.167H8.66178L8.91678 12.3595C9.0798 11.865 9.41872 11.4475 9.8692 11.1863C10.3197 10.9252 10.8504 10.8385 11.3605 10.9428L12.1964 11.1128L13.1172 9.5474L12.5505 8.90989C12.2021 8.5203 12.0094 8.01593 12.0094 7.49323C12.0094 6.97053 12.2021 6.46616 12.5505 6.07656L13.1172 5.43906L12.2105 3.88073L11.3747 4.05073C10.8645 4.15501 10.3339 4.06835 9.88337 3.8072C9.43289 3.54605 9.09397 3.12859 8.93095 2.63406L8.66178 1.83365H6.84845L6.57928 2.64115C6.41626 3.13567 6.07734 3.55314 5.62686 3.81429C5.17638 4.07544 4.64569 4.16209 4.13553 4.05781L3.2997 3.88781L2.39303 5.46031L2.9597 6.09781C3.30426 6.48652 3.49451 6.98796 3.49451 7.5074C3.49451 8.02683 3.30426 8.52827 2.9597 8.91698ZM7.75511 4.66698C8.31549 4.66698 8.86329 4.83315 9.32923 5.14448C9.79517 5.45581 10.1583 5.89832 10.3728 6.41604C10.5872 6.93377 10.6433 7.50346 10.534 8.05307C10.4247 8.60268 10.1548 9.10753 9.75858 9.50378C9.36233 9.90003 8.85748 10.1699 8.30787 10.2792C7.75826 10.3885 7.18857 10.3324 6.67085 10.118C6.15312 9.90352 5.71061 9.54037 5.39928 9.07443C5.08795 8.60849 4.92178 8.06069 4.92178 7.50031C4.92178 6.74887 5.22029 6.0282 5.75165 5.49684C6.283 4.96549 7.00367 4.66698 7.75511 4.66698ZM7.75511 8.91698C8.0353 8.91698 8.3092 8.83389 8.54217 8.67823C8.77514 8.52256 8.95672 8.30131 9.06394 8.04245C9.17117 7.78358 9.19922 7.49874 9.14456 7.22393C9.0899 6.94913 8.95497 6.6967 8.75685 6.49858C8.55872 6.30045 8.3063 6.16553 8.03149 6.11087C7.75669 6.0562 7.47184 6.08426 7.21298 6.19148C6.95412 6.29871 6.73286 6.48028 6.5772 6.71325C6.42153 6.94622 6.33845 7.22012 6.33845 7.50031C6.33845 7.87604 6.4877 8.23637 6.75338 8.50205C7.01906 8.76772 7.37939 8.91698 7.75511 8.91698Z" fill="#71839B"/>
</svg>
