<svg width="99" height="99" viewBox="0 0 99 99" fill="none" xmlns="http://www.w3.org/2000/svg">
<path d="M64.1412 24.3994C63.3297 25.2154 62.7083 26.2001 62.3212 27.2833C61.9341 28.3667 61.7908 29.5221 61.9015 30.6671L61.863 30.6286C61.9769 31.9765 61.7949 33.3327 61.3301 34.6032C60.8652 35.8734 60.1287 37.027 59.1718 37.9835C58.2147 38.9398 57.0604 39.6761 55.7892 40.1405C54.5182 40.605 53.1609 40.7869 51.8124 40.6731L51.8509 40.7116C50.2378 40.5616 48.6176 40.9123 47.211 41.7163C45.8047 42.5202 44.6806 43.738 43.9922 45.2038C43.3039 46.6696 43.0844 48.3117 43.364 49.9068C43.6439 51.5016 44.4089 52.9715 45.5551 54.1159C46.7012 55.2603 48.1726 56.0236 49.7687 56.3016C51.3649 56.5797 53.0078 56.3589 54.4739 55.6697C55.9399 54.9802 57.1574 53.8559 57.9605 52.4496C58.7637 51.0433 59.1133 49.4238 58.9617 47.8117L59.0024 47.8502C58.8885 46.5025 59.0703 45.146 59.5351 43.8756C60 42.6054 60.7368 41.4518 61.6936 40.4953C62.6507 39.539 63.805 38.8026 65.076 38.3383C66.3472 37.8737 67.7043 37.6918 69.053 37.8057L69.0123 37.7672C70.33 37.8855 71.6565 37.6696 72.8686 37.1393C74.0805 36.6091 75.139 35.7816 75.9458 34.7337C76.7526 33.6858 77.2819 32.4511 77.484 31.1445C77.6864 29.8377 77.5553 28.5011 77.1031 27.2583C76.6509 26.0157 75.8921 24.9072 74.8971 24.0357C73.9021 23.1641 72.703 22.5577 71.4111 22.2726C70.1191 21.9876 68.7759 22.033 67.5062 22.4047C66.2365 22.7766 65.0814 23.4626 64.1476 24.3994H64.1412Z" fill="#702DFF"/>
<path d="M48.7121 35.9398L48.672 35.9018C49.8012 36.0155 50.9416 35.8769 52.0109 35.4959C53.08 35.1149 54.0512 34.5011 54.8541 33.6988C55.6568 32.8964 56.2715 31.9255 56.6531 30.8565C57.0349 29.7875 57.1744 28.6472 57.0615 27.5176L57.1016 27.5556C56.9894 26.2266 57.1687 24.8895 57.6264 23.6369C58.0844 22.3845 58.8103 21.2472 59.753 20.3041C60.696 19.3612 61.8332 18.6353 63.0854 18.1774C64.3378 17.7193 65.6748 17.5402 67.0036 17.6523L66.9635 17.6144C68.5531 17.7637 70.1497 17.4189 71.5361 16.6272C72.9227 15.8355 74.031 14.6353 74.7103 13.1904C75.3895 11.7455 75.6066 10.1262 75.332 8.55333C75.0573 6.98048 74.3042 5.53069 73.1752 4.40167C72.0464 3.27267 70.5967 2.5194 69.0241 2.24467C67.4515 1.96991 65.8324 2.18703 64.3876 2.86641C62.9428 3.54578 61.7429 4.65436 60.9512 6.04092C60.1595 7.42745 59.8148 9.02448 59.9642 10.6141L59.9262 10.5741C60.0387 11.903 59.8598 13.2404 59.402 14.4931C58.9442 15.7457 58.2184 16.8832 57.2756 17.8264C56.3327 18.7692 55.1952 19.4952 53.9428 19.953C52.6902 20.4108 51.353 20.5898 50.0242 20.4773L50.0622 20.5174C48.9329 20.4037 47.7923 20.5423 46.7232 20.9233C45.6541 21.3041 44.6829 21.9181 43.88 22.7204C43.0771 23.5227 42.4626 24.4937 42.0808 25.5627C41.6992 26.6317 41.5598 27.772 41.6726 28.9016L41.6347 28.8636C41.7465 30.1924 41.567 31.5295 41.109 32.7819C40.6508 34.034 39.9251 35.1714 38.9824 36.1143C38.0396 37.0571 36.9024 37.7829 35.6503 38.2411C34.3982 38.6991 33.0612 38.8787 31.7326 38.7669L31.7706 38.8048C30.1811 38.6555 28.5843 39.0002 27.1979 39.792C25.8115 40.5838 24.7031 41.7838 24.0238 43.2288C23.3445 44.6738 23.1274 46.293 23.4021 47.8659C23.6768 49.4387 24.43 50.8885 25.5589 52.0175C26.6878 53.1466 28.1374 53.8998 29.71 54.1745C31.2827 54.4492 32.9018 54.2321 34.3465 53.5527C35.7913 52.8734 36.9913 51.7649 37.7829 50.3784C38.5746 48.9916 38.9193 47.3947 38.77 45.805L38.81 45.843C38.6978 44.5141 38.8771 43.1769 39.3351 41.9243C39.7929 40.672 40.5187 39.5346 41.4615 38.5915C42.4044 37.6487 43.5417 36.9227 44.7939 36.4649C46.0463 36.0069 47.3833 35.8275 48.7121 35.9398Z" fill="#702DFF"/>
<path d="M34.5844 32.0186C35.3961 31.2028 36.0175 30.2179 36.4044 29.1343C36.7912 28.0508 36.9339 26.8951 36.8223 25.7501L36.863 25.7887C36.7491 24.4404 36.931 23.0833 37.3962 21.8125C37.8613 20.5417 38.5985 19.3877 39.5562 18.4311C40.5139 17.4745 41.6688 16.7383 42.9407 16.274C44.2125 15.8096 45.5705 15.6284 46.9196 15.7428L46.879 15.7043C48.492 15.8553 50.1125 15.5054 51.5192 14.7024C52.926 13.8993 54.0505 12.6822 54.7399 11.2169C55.429 9.75165 55.6492 8.10962 55.3703 6.51472C55.0915 4.91983 54.327 3.44972 53.1815 2.30487C52.036 1.16002 50.5647 0.396163 48.9689 0.117473C47.373 -0.161237 45.7298 0.0588122 44.2637 0.747553C42.7974 1.43629 41.5795 2.56023 40.776 3.96609C39.9723 5.37195 39.6222 6.99131 39.7734 8.60331L39.7348 8.56479C39.8487 9.91276 39.6667 11.2693 39.2018 12.5398C38.7369 13.8103 38.0002 14.9641 37.043 15.9206C36.0859 16.8772 34.9313 17.6134 33.66 18.0779C32.3887 18.5426 31.0313 18.7245 29.6825 18.6106L29.721 18.6491C28.403 18.531 27.0765 18.7474 25.8645 19.2779C24.6524 19.8085 23.594 20.6363 22.7872 21.6845C21.9805 22.7325 21.4516 23.9674 21.2495 25.2742C21.0474 26.5812 21.1786 27.9179 21.6311 29.1605C22.0835 30.4032 22.8425 31.5116 23.8378 32.3831C24.833 33.2548 26.0323 33.8611 27.3244 34.1461C28.6165 34.431 29.9598 34.3854 31.2296 34.0137C32.4995 33.6417 33.6548 32.9556 34.5887 32.0186H34.5844Z" fill="#702DFF"/>
<path d="M23.7286 90.8323L24.4206 87.1065C25.698 87.1065 26.9222 87.0444 28.0931 86.9202C29.2819 86.796 30.4085 86.5476 31.473 86.175C32.5552 85.8025 33.5665 85.2525 34.5069 84.5251C35.4472 83.7976 36.2988 82.8218 37.0617 81.5976L40.0423 82.9549C39.9359 83.292 39.8472 83.6202 39.7762 83.9396C39.7052 84.2412 39.6698 84.4896 39.6698 84.6847C39.6698 85.0928 39.7673 85.4476 39.9625 85.7492C40.1754 86.0509 40.5302 86.2815 41.027 86.4412C41.5238 86.6009 42.2069 86.6807 43.0762 86.6807C43.7504 86.6807 44.2294 86.8581 44.5133 87.213C44.7972 87.5501 44.9391 87.9759 44.9391 88.4904C44.9391 89.0404 44.7528 89.5017 44.3802 89.8742C44.0254 90.2291 43.502 90.4065 42.8101 90.4065C41.5859 90.4065 40.5214 90.238 39.6165 89.9009C38.7294 89.5638 38.0286 89.0936 37.5141 88.4904C37.0173 87.8694 36.7246 87.1597 36.6359 86.3613L37.7004 86.4678C37.0617 87.2307 36.2633 87.8871 35.3052 88.4371C34.3649 88.9871 33.2915 89.4396 32.0851 89.7944C30.8964 90.1492 29.5923 90.4065 28.173 90.5662C26.7714 90.7436 25.2899 90.8323 23.7286 90.8323ZM23.702 90.8323C21.7859 90.8323 20.1625 90.6815 18.8319 90.3799C17.5189 90.096 16.4456 89.688 15.6117 89.1557C14.7956 88.6057 14.2012 87.967 13.8286 87.2396C13.456 86.5121 13.2698 85.7138 13.2698 84.8444C13.2698 84.2767 13.3141 83.7089 13.4028 83.1412C13.5093 82.5557 13.6335 81.988 13.7754 81.438C13.9351 80.888 14.077 80.3912 14.2012 79.9476L17.5278 80.7194C17.4569 81.0388 17.377 81.3847 17.2883 81.7573C17.1996 82.1299 17.1286 82.4936 17.0754 82.8484C17.0222 83.1855 16.9956 83.496 16.9956 83.7799C16.9956 84.4363 17.2262 85.0218 17.6875 85.5363C18.1665 86.0331 18.9472 86.4234 20.0294 86.7073C21.1117 86.9734 22.5665 87.1065 24.3939 87.1065L24.9262 89.9807L23.702 90.8323ZM25.6181 97.0597C25.1036 97.0597 24.6601 96.8823 24.2875 96.5275C23.9327 96.1726 23.7552 95.738 23.7552 95.2234C23.7552 94.7089 23.9327 94.2565 24.2875 93.8662C24.6601 93.4936 25.1036 93.3073 25.6181 93.3073C26.1327 93.3073 26.5673 93.4936 26.9222 93.8662C27.2948 94.2565 27.481 94.7089 27.481 95.2234C27.481 95.738 27.2948 96.1726 26.9222 96.5275C26.5673 96.8823 26.1327 97.0597 25.6181 97.0597ZM42.0011 90.4065L42.2672 86.7073C43.7398 86.7073 44.9196 86.6984 45.8067 86.6807C46.7116 86.663 47.4124 86.6275 47.9091 86.5742C48.4237 86.5033 48.8051 86.4234 49.0535 86.3347C49.3019 86.2283 49.5148 86.113 49.6922 85.9888C49.9051 85.8291 50.0825 85.6162 50.2245 85.3501C50.3841 85.0662 50.5083 84.6936 50.5971 84.2323C50.6858 83.771 50.7301 83.1944 50.7301 82.5025C50.7301 81.6331 50.6503 80.9057 50.4906 80.3202C50.3487 79.717 50.1358 79.2646 49.8519 78.963C49.5858 78.6613 49.2575 78.5105 48.8672 78.5105C48.5833 78.5105 48.3172 78.6081 48.0688 78.8033C47.8204 78.9807 47.6164 79.2291 47.4567 79.5484C47.2971 79.8678 47.2172 80.2315 47.2172 80.6396C47.2172 80.8702 47.2793 81.0742 47.4035 81.2517C47.5277 81.4291 47.7229 81.5621 47.989 81.6509C48.2551 81.7396 48.5922 81.7839 49.0003 81.7839C49.3906 81.7839 49.7987 81.7396 50.2245 81.6509C50.668 81.5444 51.0761 81.4025 51.4487 81.2251L51.5551 84.392C51.2712 84.5871 50.943 84.7646 50.5704 84.9242C50.1979 85.0839 49.7987 85.2081 49.3729 85.2968C48.9648 85.3678 48.5479 85.4033 48.1221 85.4033C47.1817 85.4033 46.3656 85.2791 45.6737 85.0307C44.9995 84.7646 44.4761 84.3388 44.1035 83.7533C43.7309 83.1678 43.5446 82.3694 43.5446 81.3581C43.5446 80.5775 43.6777 79.8057 43.9438 79.0428C44.21 78.2621 44.5914 77.5613 45.0882 76.9404C45.585 76.3017 46.1704 75.796 46.8446 75.4234C47.5188 75.0331 48.264 74.838 49.0801 74.838C50.2866 74.838 51.2801 75.1928 52.0608 75.9025C52.8591 76.5944 53.4446 77.5347 53.8172 78.7234C54.2075 79.8944 54.4027 81.1984 54.4027 82.6355C54.4027 83.8952 54.2164 84.9952 53.8438 85.9355C53.4712 86.8581 53.0277 87.5855 52.5132 88.1178C52.0874 88.5613 51.5995 88.9339 51.0495 89.2355C50.4995 89.5371 49.8253 89.7767 49.0269 89.9541C48.2462 90.1138 47.2793 90.2291 46.1261 90.3001C44.9906 90.371 43.6156 90.4065 42.0011 90.4065ZM51.3422 72.4162C50.8277 72.4162 50.3841 72.2388 50.0116 71.8839C49.6567 71.5113 49.4793 71.0767 49.4793 70.5799C49.4793 70.0654 49.6567 69.6218 50.0116 69.2492C50.3841 68.8767 50.8277 68.6904 51.3422 68.6904C51.839 68.6904 52.2648 68.8767 52.6196 69.2492C52.9745 69.6218 53.1519 70.0654 53.1519 70.5799C53.1519 71.0767 52.9745 71.5113 52.6196 71.8839C52.2648 72.2388 51.839 72.4162 51.3422 72.4162ZM46.7382 72.3896C46.2237 72.3896 45.7801 72.2121 45.4075 71.8573C45.0527 71.4847 44.8753 71.05 44.8753 70.5533C44.8753 70.0388 45.0527 69.5952 45.4075 69.2226C45.7801 68.85 46.2237 68.6638 46.7382 68.6638C47.235 68.6638 47.6608 68.85 48.0156 69.2226C48.3704 69.5952 48.5479 70.0388 48.5479 70.5533C48.5479 71.05 48.3704 71.4847 48.0156 71.8573C47.6608 72.2121 47.235 72.3896 46.7382 72.3896ZM56.7681 90.2734L56.2093 70.7928H59.9351L60.4939 90.2734H56.7681ZM60.8678 96.421L59.5105 93.121C60.4508 92.8017 61.3113 92.4291 62.092 92.0033C62.8903 91.5775 63.5823 91.1073 64.1678 90.5928C64.7532 90.0783 65.2057 89.5194 65.525 88.9162C65.8444 88.2952 66.0041 87.6299 66.0041 86.9202C66.0041 86.1751 65.8355 85.3589 65.4984 84.4718C65.1613 83.5847 64.7532 82.6799 64.2742 81.7573L67.7605 80.0807C68.0799 80.6307 68.3549 81.225 68.5855 81.8638C68.8339 82.4847 69.0379 83.0436 69.1976 83.5404C69.3573 84.0371 69.4637 84.3742 69.517 84.5517C69.7653 85.4033 70.1024 85.971 70.5282 86.2549C70.9718 86.5388 71.6815 86.6807 72.6573 86.6807C73.3315 86.6807 73.8105 86.8581 74.0944 87.213C74.396 87.5501 74.5468 87.9759 74.5468 88.4904C74.5468 89.0404 74.3605 89.5017 73.9879 89.8742C73.6153 90.2291 73.0831 90.4065 72.3912 90.4065C71.6637 90.4065 71.025 90.3001 70.475 90.0871C69.925 89.8742 69.4815 89.5638 69.1444 89.1557C68.825 88.7476 68.621 88.2686 68.5323 87.7186L69.517 88.2775C69.4105 89.2178 69.1 90.1049 68.5855 90.9388C68.0887 91.7904 67.4411 92.571 66.6428 93.2807C65.8444 93.9904 64.9484 94.6113 63.9549 95.1436C62.9613 95.6759 61.9323 96.1017 60.8678 96.421ZM76.58 75.7847L76.2872 74.1081C77.2276 74.1081 78.1058 73.975 78.9219 73.7089C79.738 73.425 80.3945 73.0702 80.8913 72.6444C81.388 72.2186 81.6364 71.8017 81.6364 71.3936C81.6364 71.1452 81.5655 70.9234 81.4235 70.7283C81.2816 70.5331 81.0776 70.4355 80.8114 70.4355C80.5808 70.4355 80.3768 70.5242 80.1993 70.7017C80.0219 70.8791 79.9332 71.1009 79.9332 71.367C79.9332 71.7041 80.0663 72.0057 80.3324 72.2718C80.5985 72.5202 80.9179 72.7242 81.2905 72.8839L80.1461 73.8952C79.6139 73.6468 79.1526 73.3186 78.7622 72.9105C78.3719 72.4847 78.1768 71.9436 78.1768 71.2871C78.1768 70.5597 78.4251 69.9565 78.9219 69.4775C79.4364 68.9984 80.0751 68.7589 80.838 68.7589C81.6719 68.7589 82.3018 69.025 82.7276 69.5573C83.1534 70.0896 83.3663 70.6928 83.3663 71.367C83.3663 72.2186 83.0558 72.9638 82.4348 73.6025C81.8316 74.2412 81.0155 74.7468 79.9864 75.1194C78.9751 75.492 77.8397 75.7138 76.58 75.7847ZM70.8262 90.4065L71.0923 86.6807C71.5004 86.6807 71.8463 86.5831 72.1302 86.388C72.4318 86.1751 72.7423 85.8291 73.0617 85.3501C73.381 84.8533 73.7536 84.188 74.1794 83.3541C74.7117 82.2896 75.2617 81.4557 75.8294 80.8525C76.4149 80.2492 77.0093 79.8234 77.6125 79.575C78.2334 79.3089 78.8544 79.1759 79.4754 79.1759C80.256 79.1759 80.9834 79.3444 81.6576 79.6815C82.3318 80.0186 82.9173 80.4799 83.4141 81.0654C83.9109 81.6331 84.2923 82.2896 84.5584 83.0347C84.8423 83.7621 84.9843 84.5162 84.9843 85.2968C84.9843 86.2371 84.7802 87.0888 84.3722 87.8517C83.9818 88.5968 83.4318 89.1912 82.7222 89.6347C82.0302 90.0605 81.2318 90.2734 80.327 90.2734C79.5641 90.2734 78.677 90.1404 77.6657 89.8742C76.6544 89.6081 75.5899 89.0492 74.4722 88.1976L75.8294 84.9775C76.6278 85.5275 77.373 85.9267 78.0649 86.175C78.7746 86.4234 79.3601 86.5476 79.8213 86.5476C80.1762 86.5476 80.4689 86.5121 80.6996 86.4412C80.9302 86.3702 81.0988 86.2549 81.2052 86.0952C81.3117 85.9355 81.3649 85.7226 81.3649 85.4565C81.3649 85.0839 81.2762 84.7025 81.0988 84.3121C80.9213 83.9218 80.6818 83.5936 80.3802 83.3275C80.0963 83.0436 79.7593 82.9017 79.3689 82.9017C78.9963 82.9017 78.677 83.0436 78.4109 83.3275C78.1625 83.5936 77.9141 83.9839 77.6657 84.4984C77.4351 84.9952 77.1512 85.5807 76.8141 86.2549C76.406 87.071 76.0068 87.7541 75.6165 88.3041C75.2262 88.8363 74.8093 89.2621 74.3657 89.5815C73.9399 89.8831 73.4343 90.096 72.8488 90.2202C72.281 90.3444 71.6068 90.4065 70.8262 90.4065Z" fill="#702DFF"/>
</svg>
