<svg width="22" height="22" viewBox="0 0 22 22" fill="none" xmlns="http://www.w3.org/2000/svg">
<path d="M11.9163 20.1673H4.58301C2.74967 20.1673 1.83301 19.2507 1.83301 17.4173V10.084C1.83301 8.25065 2.74967 7.33398 4.58301 7.33398H9.16634V17.4173C9.16634 19.2507 10.083 20.1673 11.9163 20.1673Z" stroke="white" stroke-width="1.5" stroke-miterlimit="10" stroke-linecap="round" stroke-linejoin="round"/>
<path opacity="0.4" d="M9.26716 3.66602C9.19383 3.94102 9.16634 4.24352 9.16634 4.58268V7.33268H4.58301V5.49935C4.58301 4.49102 5.40801 3.66602 6.41634 3.66602H9.26716Z" stroke="white" stroke-width="1.5" stroke-miterlimit="10" stroke-linecap="round" stroke-linejoin="round"/>
<path opacity="0.4" d="M12.833 7.33398V11.9173" stroke="white" stroke-width="1.5" stroke-miterlimit="10" stroke-linecap="round" stroke-linejoin="round"/>
<path opacity="0.4" d="M16.5 7.33398V11.9173" stroke="white" stroke-width="1.5" stroke-miterlimit="10" stroke-linecap="round" stroke-linejoin="round"/>
<path d="M15.583 15.584H13.7497C13.2455 15.584 12.833 15.9965 12.833 16.5007V20.1673H16.4997V16.5007C16.4997 15.9965 16.0872 15.584 15.583 15.584Z" stroke="white" stroke-width="1.5" stroke-miterlimit="10" stroke-linecap="round" stroke-linejoin="round"/>
<path opacity="0.4" d="M5.5 11.916V15.5827" stroke="white" stroke-width="1.5" stroke-miterlimit="10" stroke-linecap="round" stroke-linejoin="round"/>
<path d="M9.16699 17.4173V4.58398C9.16699 2.75065 10.0837 1.83398 11.917 1.83398H17.417C19.2503 1.83398 20.167 2.75065 20.167 4.58398V17.4173C20.167 19.2507 19.2503 20.1673 17.417 20.1673H11.917C10.0837 20.1673 9.16699 19.2507 9.16699 17.4173Z" stroke="white" stroke-width="1.5" stroke-miterlimit="10" stroke-linecap="round" stroke-linejoin="round"/>
</svg>
